<?xml version="1.0" encoding="utf-8"?>
<!-- Generator: Adobe Illustrator 25.2.1, SVG Export Plug-In . SVG Version: 6.00 Build 0)  -->
<svg version="1.1" id="Layer_1" xmlns="http://www.w3.org/2000/svg" xmlns:xlink="http://www.w3.org/1999/xlink" x="0px" y="0px"
	 viewBox="0 0 100.6 97.1" style="enable-background:new 0 0 100.6 97.1;" xml:space="preserve">
<style type="text/css">
	.st0{fill:#E7332E;}
	.st1{fill:none;stroke:#E7332E;stroke-miterlimit:10;}
	.st2{fill:#F92323;}
</style>
<path class="st2" d="M98.9,42.1c0-10.9-8.8-19.7-19.7-19.7c-3.2,0-6.3,0.8-9,2.2c0.1-0.7,0.1-1.4,0.1-2.2c0-10.9-8.8-19.7-19.7-19.7
	s-19.7,8.8-19.7,19.7c0,0.8,0.1,1.6,0.2,2.4c-2.9-1.7-6.2-2.6-9.8-2.6C10.5,22.2,1.7,31,1.7,41.9c0,9.9,7.4,18.1,16.9,19.5
	c-3.7,3.6-6,8.6-6,14.1c0,10.9,8.8,19.7,19.7,19.7c8.4,0,15.6-5.3,18.4-12.7c2.8,7.4,10,12.7,18.4,12.7c10.9,0,19.7-8.8,19.7-19.7
	c0-5.5-2.3-10.5-5.9-14C92,59.7,98.9,51.7,98.9,42.1z M50.7,68.5c-9.1,0-16.6-7.4-16.6-16.6c0-9.1,7.4-16.6,16.6-16.6
	S67.3,42.8,67.3,52C67.3,61.1,59.9,68.5,50.7,68.5z"/>
</svg>
